<svg width="10" height="10" viewBox="0 0 10 10" fill="none" xmlns="http://www.w3.org/2000/svg">
<path d="M5 10C7.76143 10 10 7.76143 10 5C10 2.23857 7.76143 0 5 0C2.23857 0 0 2.23857 0 5C0 7.76143 2.23857 10 5 10ZM4.64286 3.21429C4.64286 3.11957 4.68048 3.02872 4.74746 2.96175C4.81444 2.89477 4.90528 2.85714 5 2.85714C5.09472 2.85714 5.18556 2.89477 5.25254 2.96175C5.31952 3.02872 5.35714 3.11957 5.35714 3.21429V4.64286H6.78571C6.88043 4.64286 6.97128 4.68048 7.03825 4.74746C7.10523 4.81444 7.14286 4.90528 7.14286 5C7.14286 5.09472 7.10523 5.18556 7.03825 5.25254C6.97128 5.31952 6.88043 5.35714 6.78571 5.35714H5.35714V6.78571C5.35714 6.88043 5.31952 6.97128 5.25254 7.03825C5.18556 7.10523 5.09472 7.14286 5 7.14286C4.90528 7.14286 4.81444 7.10523 4.74746 7.03825C4.68048 6.97128 4.64286 6.88043 4.64286 6.78571V5.35714H3.21429C3.11957 5.35714 3.02872 5.31952 2.96175 5.25254C2.89477 5.18556 2.85714 5.09472 2.85714 5C2.85714 4.90528 2.89477 4.81444 2.96175 4.74746C3.02872 4.68048 3.11957 4.64286 3.21429 4.64286H4.64286V3.21429Z" fill="#191919"/>
</svg>
