<svg width="25" height="22" viewBox="0 0 25 22" fill="none" xmlns="http://www.w3.org/2000/svg">
<path d="M1.89768 8.13079L3.58359 3.31545C4.22893 1.47048 5.96946 0.235382 7.92415 0.235382H16.6053C18.56 0.235382 20.299 1.47048 20.9458 3.31545L22.6322 8.13079C23.7437 8.59071 24.5294 9.68783 24.5294 10.967V20.1655C24.5294 21.0135 23.8443 21.6986 22.9963 21.6986H21.4632C20.6152 21.6986 19.9301 21.0135 19.9301 20.1655V17.8659H4.59926V20.1655C4.59926 21.0135 3.91273 21.6986 3.06618 21.6986H1.53309C0.686536 21.6986 0 21.0135 0 20.1655V10.967C0 9.68783 0.783791 8.59071 1.89768 8.13079ZM5.22687 7.90082H19.3025L18.0521 4.32681C17.8365 3.71358 17.2568 3.30156 16.6053 3.30156H7.92415C7.27259 3.30156 6.69289 3.71358 6.4773 4.32681L5.22687 7.90082ZM4.59926 10.967C3.75271 10.967 3.06618 11.6521 3.06618 12.5001C3.06618 13.3481 3.75271 14.0332 4.59926 14.0332C5.44725 14.0332 6.13235 13.3481 6.13235 12.5001C6.13235 11.6521 5.44725 10.967 4.59926 10.967ZM19.9301 14.0332C20.7781 14.0332 21.4632 13.3481 21.4632 12.5001C21.4632 11.6521 20.7781 10.967 19.9301 10.967C19.0822 10.967 18.3971 11.6521 18.3971 12.5001C18.3971 13.3481 19.0822 14.0332 19.9301 14.0332Z" fill="#525252"/>
</svg>
