<svg width="10" height="10" viewBox="0 0 10 10" fill="none" xmlns="http://www.w3.org/2000/svg">
<path d="M5 0C2.23812 0 0 2.23875 0 5C0 7.76125 2.23812 10 5 10C7.76188 10 10 7.76125 10 5C10 2.23875 7.76188 0 5 0ZM7.31687 6.43313C7.43407 6.55032 7.49991 6.70926 7.49991 6.875C7.49991 7.04074 7.43407 7.19968 7.31687 7.31687C7.19968 7.43407 7.04074 7.49991 6.875 7.49991C6.70926 7.49991 6.55032 7.43407 6.43313 7.31687L5 5.88375L3.56687 7.31687C3.50897 7.37512 3.44012 7.42133 3.36428 7.45287C3.28845 7.48441 3.20713 7.50065 3.125 7.50065C3.04287 7.50065 2.96155 7.48441 2.88572 7.45287C2.80988 7.42133 2.74103 7.37512 2.68313 7.31687C2.62503 7.25888 2.57895 7.19001 2.5475 7.11418C2.51606 7.03836 2.49987 6.95708 2.49987 6.875C2.49987 6.79292 2.51606 6.71164 2.5475 6.63582C2.57895 6.55999 2.62503 6.49112 2.68313 6.43313L4.11625 5L2.68313 3.56687C2.56593 3.44968 2.50009 3.29074 2.50009 3.125C2.50009 2.95926 2.56593 2.80032 2.68313 2.68313C2.80032 2.56593 2.95926 2.50009 3.125 2.50009C3.29074 2.50009 3.44968 2.56593 3.56687 2.68313L5 4.11625L6.43313 2.68313C6.55032 2.56593 6.70926 2.50009 6.875 2.50009C7.04074 2.50009 7.19968 2.56593 7.31687 2.68313C7.43407 2.80032 7.49991 2.95926 7.49991 3.125C7.49991 3.29074 7.43407 3.44968 7.31687 3.56687L5.88375 5L7.31687 6.43313Z" fill="#191919"/>
</svg>
