<svg width="34" height="34" viewBox="0 0 34 34" fill="none" xmlns="http://www.w3.org/2000/svg">
<g filter="url(#filter0_d_169_1493)">
<path d="M17 11C14.2381 11 12 13.2387 12 16C12 18.7613 14.2381 21 17 21C19.7619 21 22 18.7613 22 16C22 13.2387 19.7619 11 17 11ZM19.3169 17.4331C19.4341 17.5503 19.4999 17.7093 19.4999 17.875C19.4999 18.0407 19.4341 18.1997 19.3169 18.3169C19.1997 18.4341 19.0407 18.4999 18.875 18.4999C18.7093 18.4999 18.5503 18.4341 18.4331 18.3169L17 16.8837L15.5669 18.3169C15.509 18.3751 15.4401 18.4213 15.3643 18.4529C15.2884 18.4844 15.2071 18.5006 15.125 18.5006C15.0429 18.5006 14.9616 18.4844 14.8857 18.4529C14.8099 18.4213 14.741 18.3751 14.6831 18.3169C14.625 18.2589 14.5789 18.19 14.5475 18.1142C14.5161 18.0384 14.4999 17.9571 14.4999 17.875C14.4999 17.7929 14.5161 17.7116 14.5475 17.6358C14.5789 17.56 14.625 17.4911 14.6831 17.4331L16.1163 16L14.6831 14.5669C14.5659 14.4497 14.5001 14.2907 14.5001 14.125C14.5001 13.9593 14.5659 13.8003 14.6831 13.6831C14.8003 13.5659 14.9593 13.5001 15.125 13.5001C15.2907 13.5001 15.4497 13.5659 15.5669 13.6831L17 15.1163L18.4331 13.6831C18.5503 13.5659 18.7093 13.5001 18.875 13.5001C19.0407 13.5001 19.1997 13.5659 19.3169 13.6831C19.4341 13.8003 19.4999 13.9593 19.4999 14.125C19.4999 14.2907 19.4341 14.4497 19.3169 14.5669L17.8837 16L19.3169 17.4331Z" fill="white"/>
</g>
<defs>
<filter id="filter0_d_169_1493" x="0" y="0" width="34" height="34" filterUnits="userSpaceOnUse" color-interpolation-filters="sRGB">
<feFlood flood-opacity="0" result="BackgroundImageFix"/>
<feColorMatrix in="SourceAlpha" type="matrix" values="0 0 0 0 0 0 0 0 0 0 0 0 0 0 0 0 0 0 127 0" result="hardAlpha"/>
<feOffset dy="1"/>
<feGaussianBlur stdDeviation="6"/>
<feComposite in2="hardAlpha" operator="out"/>
<feColorMatrix type="matrix" values="0 0 0 0 0 0 0 0 0 0 0 0 0 0 0 0 0 0 0.55 0"/>
<feBlend mode="normal" in2="BackgroundImageFix" result="effect1_dropShadow_169_1493"/>
<feBlend mode="normal" in="SourceGraphic" in2="effect1_dropShadow_169_1493" result="shape"/>
</filter>
</defs>
</svg>
