<svg width="10" height="11" viewBox="0 0 10 11" fill="none" xmlns="http://www.w3.org/2000/svg">
<path fill-rule="evenodd" clip-rule="evenodd" d="M5 0.448975C2.23864 0.448975 0 2.68761 0 5.44897C0 8.21034 2.23864 10.449 5 10.449C7.76136 10.449 10 8.21034 10 5.44897C10 2.68761 7.76136 0.448975 5 0.448975ZM7.16727 4.60352C7.20718 4.5579 7.23756 4.50477 7.25663 4.44723C7.2757 4.3897 7.28307 4.32894 7.27831 4.26851C7.27354 4.20809 7.25674 4.14923 7.2289 4.0954C7.20105 4.04156 7.16272 3.99384 7.11616 3.95504C7.0696 3.91624 7.01575 3.88714 6.95777 3.86946C6.8998 3.85178 6.83887 3.84587 6.77858 3.85208C6.71829 3.85829 6.65985 3.8765 6.6067 3.90563C6.55355 3.93476 6.50676 3.97422 6.46909 4.0217L4.51455 6.3667L3.50318 5.35488C3.41745 5.27208 3.30263 5.22627 3.18345 5.2273C3.06427 5.22834 2.95027 5.27614 2.86599 5.36042C2.78172 5.4447 2.73391 5.5587 2.73288 5.67788C2.73184 5.79706 2.77766 5.91188 2.86045 5.99761L4.22409 7.36125C4.26875 7.40588 4.32223 7.44072 4.3811 7.46355C4.43997 7.48637 4.50295 7.49668 4.56603 7.49382C4.62911 7.49095 4.6909 7.47497 4.74746 7.44691C4.80402 7.41884 4.85411 7.37929 4.89455 7.33079L7.16727 4.60352Z" fill="#191919"/>
</svg>
