<svg width="23" height="19" viewBox="0 0 23 19" fill="none" xmlns="http://www.w3.org/2000/svg">
<path d="M21.6967 2.05248L16.0345 3.81723V6.58361H14.6717V4.05571L8.53939 0.914586V3.17674H7.17665V0.635223L0.587775 3.36071C0.522452 3.38731 0.466348 3.43246 0.42639 3.49058C0.386432 3.5487 0.364368 3.61726 0.362922 3.68777V17.7922C0.362539 17.8522 0.377128 17.9114 0.405368 17.9644C0.433609 18.0173 0.474611 18.0624 0.524665 18.0956C0.574719 18.1287 0.632246 18.1489 0.692043 18.1542C0.75184 18.1595 0.812019 18.1498 0.867138 18.1261L7.17665 15.5232V12.716H8.53939V15.8026L14.6717 18.9437V16.1228H16.0345V18.7052L21.9147 16.8655C21.9884 16.8422 22.0527 16.7958 22.098 16.7333C22.1434 16.6707 22.1675 16.5953 22.1668 16.518V2.39998C22.1674 2.34295 22.1543 2.2866 22.1289 2.23556C22.1034 2.18453 22.0662 2.14024 22.0204 2.10634C21.9745 2.07244 21.9213 2.04989 21.865 2.04052C21.8087 2.03116 21.7511 2.03526 21.6967 2.05248V2.05248ZM8.53939 11.3532H7.17665V8.62772H8.53939V11.3532ZM8.53939 7.26498H7.17665V4.53949H8.53939V7.26498ZM16.0345 14.7601H14.6717V12.0346H16.0345V14.7601ZM16.0345 10.6718H14.6717V7.94635H16.0345V10.6718Z" fill="#525252"/>
</svg>
