<svg width="6" height="7" viewBox="0 0 6 7" fill="none" xmlns="http://www.w3.org/2000/svg">
<path fill-rule="evenodd" clip-rule="evenodd" d="M0.962722 1.30381C1.45835 0.80818 2.13056 0.529739 2.83149 0.529739C3.53241 0.529739 4.20462 0.80818 4.70025 1.30381C5.19588 1.79943 5.47432 2.47165 5.47432 3.17257C5.47432 3.87349 5.19588 4.54571 4.70025 5.04134L2.83149 6.9101L0.962722 5.04134C0.717296 4.79593 0.522612 4.50459 0.389788 4.18395C0.256963 3.86331 0.188599 3.51964 0.188599 3.17257C0.188599 2.8255 0.256963 2.48184 0.389788 2.16119C0.522612 1.84055 0.717296 1.54921 0.962722 1.30381ZM2.83149 3.92763C3.03174 3.92763 3.22379 3.84808 3.36539 3.70648C3.50699 3.56488 3.58654 3.37282 3.58654 3.17257C3.58654 2.97232 3.50699 2.78027 3.36539 2.63867C3.22379 2.49707 3.03174 2.41751 2.83149 2.41751C2.63123 2.41751 2.43918 2.49707 2.29758 2.63867C2.15598 2.78027 2.07643 2.97232 2.07643 3.17257C2.07643 3.37282 2.15598 3.56488 2.29758 3.70648C2.43918 3.84808 2.63123 3.92763 2.83149 3.92763Z" fill="#191919"/>
</svg>
