<svg width="25" height="19" viewBox="0 0 25 19" fill="none" xmlns="http://www.w3.org/2000/svg">
<path d="M10.7316 18.8456C10.7316 18.8456 9.19849 18.8456 9.19849 17.3125C9.19849 15.7794 10.7316 11.1801 16.8639 11.1801C22.9963 11.1801 24.5294 15.7794 24.5294 17.3125C24.5294 18.8456 22.9963 18.8456 22.9963 18.8456H10.7316ZM16.8639 9.64706C18.0837 9.64706 19.2536 9.16249 20.1161 8.29996C20.9786 7.43743 21.4632 6.26759 21.4632 5.04779C21.4632 3.82799 20.9786 2.65815 20.1161 1.79562C19.2536 0.933092 18.0837 0.448528 16.8639 0.448528C15.6441 0.448528 14.4743 0.933092 13.6118 1.79562C12.7492 2.65815 12.2647 3.82799 12.2647 5.04779C12.2647 6.26759 12.7492 7.43743 13.6118 8.29996C14.4743 9.16249 15.6441 9.64706 16.8639 9.64706V9.64706Z" fill="#525252"/>
<path fill-rule="evenodd" clip-rule="evenodd" d="M7.99659 18.8452C7.76932 18.3666 7.65597 17.8419 7.66544 17.3122C7.66544 15.2348 8.70794 13.0962 10.6335 11.6091C9.67239 11.3129 8.67107 11.1681 7.66544 11.1798C1.53309 11.1798 0 15.7791 0 17.3122C0 18.8452 1.53309 18.8452 1.53309 18.8452H7.99659Z" fill="#525252"/>
<path d="M6.89888 9.64706C7.91538 9.64706 8.89025 9.24325 9.60903 8.52448C10.3278 7.80571 10.7316 6.83084 10.7316 5.81434C10.7316 4.79784 10.3278 3.82297 9.60903 3.10419C8.89025 2.38542 7.91538 1.98162 6.89888 1.98162C5.88238 1.98162 4.90751 2.38542 4.18874 3.10419C3.46997 3.82297 3.06616 4.79784 3.06616 5.81434C3.06616 6.83084 3.46997 7.80571 4.18874 8.52448C4.90751 9.24325 5.88238 9.64706 6.89888 9.64706V9.64706Z" fill="#525252"/>
</svg>
