<svg width="10" height="10" viewBox="0 0 10 10" fill="none" xmlns="http://www.w3.org/2000/svg">
<path d="M5 0C7.7615 0 10 2.2385 10 5C10 7.7615 7.7615 10 5 10C2.2385 10 0 7.7615 0 5C0 2.2385 2.2385 0 5 0ZM5 0.75C3.87283 0.75 2.79183 1.19777 1.9948 1.9948C1.19777 2.79183 0.75 3.87283 0.75 5C0.75 6.12717 1.19777 7.20817 1.9948 8.0052C2.79183 8.80223 3.87283 9.25 5 9.25C6.12717 9.25 7.20817 8.80223 8.0052 8.0052C8.80223 7.20817 9.25 6.12717 9.25 5C9.25 3.87283 8.80223 2.79183 8.0052 1.9948C7.20817 1.19777 6.12717 0.75 5 0.75V0.75ZM5 2.5C5.09946 2.5 5.19484 2.53951 5.26516 2.60983C5.33549 2.68016 5.375 2.77554 5.375 2.875V4.625H7.125C7.22446 4.625 7.31984 4.66451 7.39017 4.73484C7.46049 4.80516 7.5 4.90054 7.5 5C7.5 5.09946 7.46049 5.19484 7.39017 5.26516C7.31984 5.33549 7.22446 5.375 7.125 5.375H5.375V7.125C5.375 7.22446 5.33549 7.31984 5.26516 7.39017C5.19484 7.46049 5.09946 7.5 5 7.5C4.90054 7.5 4.80516 7.46049 4.73484 7.39017C4.66451 7.31984 4.625 7.22446 4.625 7.125V5.375H2.875C2.77554 5.375 2.68016 5.33549 2.60983 5.26516C2.53951 5.19484 2.5 5.09946 2.5 5C2.5 4.90054 2.53951 4.80516 2.60983 4.73484C2.68016 4.66451 2.77554 4.625 2.875 4.625H4.625V2.875C4.625 2.77554 4.66451 2.68016 4.73484 2.60983C4.80516 2.53951 4.90054 2.5 5 2.5V2.5Z" fill="black"/>
</svg>
