<svg width="9" height="13" viewBox="0 0 9 13" fill="none" xmlns="http://www.w3.org/2000/svg">
<path d="M8.65577 12.1677V1.88556C8.65577 1.25549 8.13609 0.743095 7.49707 0.743095H1.70361C1.0646 0.743095 0.544922 1.25549 0.544922 1.88556V12.1677L4.60034 9.50236L8.65577 12.1677ZM2.28644 4.20248C2.28644 3.87802 2.41621 3.58383 2.62535 3.37076C2.8345 3.15826 3.12359 3.02631 3.44339 3.02631C3.44339 3.02631 4.02042 3.0246 4.60034 3.61411C5.18027 3.0246 5.7573 3.02631 5.7573 3.02631C6.0771 3.02631 6.36619 3.15769 6.57533 3.37076C6.78448 3.58383 6.91425 3.87802 6.91425 4.20248C6.91425 4.52694 6.78448 4.82169 6.57533 5.03419L4.60034 7.14261L2.62535 5.03419C2.40675 4.81111 2.28514 4.51267 2.28644 4.20248Z" fill="#EF7C85"/>
</svg>
