<svg width="18" height="19" viewBox="0 0 18 19" fill="none" xmlns="http://www.w3.org/2000/svg">
<path d="M0.581778 7.00772L5.97783 6.2235L8.39001 1.33326C8.45589 1.19937 8.56428 1.09098 8.69817 1.0251C9.03396 0.859327 9.44201 0.997469 9.60991 1.33326L12.0221 6.2235L17.4181 7.00772C17.5669 7.02898 17.7029 7.09911 17.8071 7.20537C17.933 7.33477 18.0023 7.50886 17.9999 7.68938C17.9975 7.86991 17.9236 8.0421 17.7943 8.16812L13.8902 11.9745L14.8126 17.3493C14.8342 17.4743 14.8204 17.6029 14.7726 17.7205C14.7249 17.838 14.6452 17.9399 14.5425 18.0144C14.4398 18.089 14.3183 18.1333 14.1918 18.1423C14.0652 18.1513 13.9386 18.1247 13.8264 18.0655L8.99996 15.5279L4.17348 18.0655C4.04171 18.1356 3.88869 18.159 3.74205 18.1335C3.37225 18.0697 3.1236 17.7191 3.18735 17.3493L4.10972 11.9745L0.205606 8.16812C0.0993426 8.06398 0.0292091 7.92796 0.00795639 7.77919C-0.0494258 7.40727 0.209857 7.06298 0.581778 7.00772V7.00772Z" fill="#C8646C"/>
</svg>
