<svg width="9" height="9" viewBox="0 0 9 9" fill="none" xmlns="http://www.w3.org/2000/svg">
<path d="M4.25 0.5C3.12704 0.513548 2.05389 0.965665 1.25978 1.75978C0.465665 2.55389 0.0135482 3.62704 0 4.75C0.0135482 5.87296 0.465665 6.94611 1.25978 7.74022C2.05389 8.53434 3.12704 8.98645 4.25 9C5.37296 8.98645 6.44611 8.53434 7.24022 7.74022C8.03434 6.94611 8.48645 5.87296 8.5 4.75C8.48645 3.62704 8.03434 2.55389 7.24022 1.75978C6.44611 0.965665 5.37296 0.513548 4.25 0.5ZM6.67857 5.05357H4.55357V7.17857H3.94643V5.05357H1.82143V4.44643H3.94643V2.32143H4.55357V4.44643H6.67857V5.05357Z" fill="white"/>
</svg>
