<svg width="9" height="9" viewBox="0 0 9 9" fill="none" xmlns="http://www.w3.org/2000/svg">
<path d="M4.75 0.5C2.40241 0.5 0.5 2.40294 0.5 4.75C0.5 7.09706 2.40241 9 4.75 9C7.09759 9 9 7.09706 9 4.75C9 2.40294 7.09759 0.5 4.75 0.5ZM6.71934 5.96816C6.81896 6.06777 6.87492 6.20288 6.87492 6.34375C6.87492 6.48463 6.81896 6.61973 6.71934 6.71934C6.61973 6.81896 6.48463 6.87492 6.34375 6.87492C6.20288 6.87492 6.06777 6.81896 5.96816 6.71934L4.75 5.50119L3.53184 6.71934C3.48262 6.76885 3.4241 6.80813 3.35964 6.83494C3.29518 6.86175 3.22606 6.87555 3.15625 6.87555C3.08644 6.87555 3.01732 6.86175 2.95286 6.83494C2.8884 6.80813 2.82988 6.76885 2.78066 6.71934C2.73128 6.67005 2.69211 6.6115 2.66538 6.54706C2.63865 6.48261 2.62489 6.41352 2.62489 6.34375C2.62489 6.27398 2.63865 6.20489 2.66538 6.14044C2.69211 6.076 2.73128 6.01745 2.78066 5.96816L3.99881 4.75L2.78066 3.53184C2.68104 3.43223 2.62508 3.29713 2.62508 3.15625C2.62508 3.01538 2.68104 2.88027 2.78066 2.78066C2.88027 2.68104 3.01538 2.62508 3.15625 2.62508C3.29713 2.62508 3.43223 2.68104 3.53184 2.78066L4.75 3.99881L5.96816 2.78066C6.06777 2.68104 6.20288 2.62508 6.34375 2.62508C6.48463 2.62508 6.61973 2.68104 6.71934 2.78066C6.81896 2.88027 6.87492 3.01538 6.87492 3.15625C6.87492 3.29713 6.81896 3.43223 6.71934 3.53184L5.50119 4.75L6.71934 5.96816Z" fill="#3B3B3B"/>
</svg>
